<svg version="1.1" id="Layer_1" xmlns="http://www.w3.org/2000/svg" xmlns:xlink="http://www.w3.org/1999/xlink" x="0px" y="0px"
	 width="100%" viewBox="0 0 196 196" enable-background="new 0 0 196 196" xml:space="preserve">
<path fill="#FEFEFE" opacity="1.000000" stroke="none" 
	d="
M77.000000,197.000000 
	C51.682129,197.000000 26.364262,197.000000 1.046391,197.000000 
	C1.030928,196.848892 1.001914,196.697800 1.001909,196.546692 
	C0.999971,131.419800 1.000000,66.292915 1.000000,1.000000 
	C33.591194,1.000000 66.182671,1.000000 98.774147,1.000000 
	C131.420868,1.000000 164.067596,1.000000 196.857162,1.000000 
	C196.857162,66.333115 196.857162,131.666519 196.857162,197.000000 
	C179.582855,197.000000 162.260086,197.000000 144.468353,196.624023 
	C143.336487,195.436615 142.673584,194.625198 141.988373,193.376266 
	C143.090622,184.050232 143.369965,174.949051 145.540375,166.323700 
	C148.694504,153.788956 148.473770,141.521347 146.249023,128.921448 
	C150.152725,124.353043 153.427414,119.919151 148.818924,114.193436 
	C148.402145,113.675629 148.575134,112.666107 148.514313,111.881828 
	C148.279037,108.848946 148.060013,105.814796 147.779327,102.031639 
	C150.923630,97.731560 150.732025,97.288300 146.800278,92.156921 
	C145.732208,90.762962 145.287445,88.172363 145.753601,86.456108 
	C147.176956,81.215775 149.183472,76.133835 151.157043,70.706818 
	C152.515289,68.308784 153.467484,66.032173 154.916565,64.135124 
	C155.925186,62.814735 157.615952,62.015434 159.201309,61.250507 
	C160.742752,60.857807 163.114136,60.366470 163.254379,59.509819 
	C163.982712,55.061634 167.322617,56.207935 170.211975,56.099895 
	C172.184464,55.520531 173.951294,54.700096 176.094391,53.886894 
	C177.642761,53.080482 179.089706,52.482254 179.930801,51.409161 
	C181.785965,49.042240 183.507431,46.529716 184.947281,43.893017 
	C185.844925,42.249222 187.680313,39.909359 183.890106,39.078041 
	C183.894684,39.062107 183.905899,39.081318 183.929932,38.698437 
	C182.931885,37.561165 181.909836,36.806778 180.589737,35.894943 
	C175.534653,31.239101 175.534653,31.239101 170.710663,36.035492 
	C169.481842,36.036880 168.662247,36.056637 167.555054,35.921127 
	C164.806259,32.294346 168.500320,31.026833 170.134216,28.914190 
	C174.483215,28.751568 174.756958,25.858339 175.005676,22.675503 
	C175.050400,22.437023 175.180420,21.969490 175.366486,21.853514 
	C175.778458,21.534321 175.926117,21.284781 176.093597,20.710516 
	C176.096100,19.356762 176.000580,18.281412 175.918091,16.874706 
	C175.597549,16.018522 175.263992,15.493698 174.967865,14.599871 
	C173.672958,12.466270 172.340607,10.701674 171.001678,8.586586 
	C170.479858,7.288843 169.964630,6.341593 169.449417,5.394343 
	C168.964722,5.905701 168.480042,6.417058 167.664551,7.073750 
	C166.205948,7.554149 165.078140,7.889215 163.964539,7.859785 
	C162.331177,2.795467 159.456924,8.174737 157.088516,7.037299 
	C157.817703,7.732890 158.546890,8.428482 159.194366,9.466209 
	C158.116730,12.224994 157.120819,14.641642 156.124893,17.058290 
	C155.790482,16.519091 155.456070,15.979893 155.121658,15.440694 
	C153.548859,18.327833 151.976044,21.214972 150.296143,24.298710 
	C148.624527,23.280817 147.291061,22.468826 145.774048,21.545069 
	C146.906265,19.430887 147.826523,17.712507 148.823120,15.643711 
	C145.996719,11.677242 142.364777,9.802795 137.336823,10.740040 
	C135.333282,13.573374 133.618454,16.239536 131.610016,19.076180 
	C125.173065,23.913803 127.963470,28.808331 131.221893,33.210506 
	C129.885117,35.830124 124.676079,36.474098 128.698059,40.711578 
	C127.752144,43.895458 126.682434,46.733349 125.323112,49.720398 
	C123.379097,51.656929 121.724701,53.444298 119.769379,55.349171 
	C117.269249,57.934654 115.070038,60.402630 112.560692,62.950455 
	C111.686432,63.645016 111.122314,64.259727 110.209251,64.935501 
	C108.022682,64.919426 106.172806,64.674103 104.350449,64.806763 
	C101.947433,64.981674 98.561684,64.579018 97.360672,65.958702 
	C93.516075,70.375214 88.089600,71.173759 83.358543,71.631607 
	C76.736656,72.272446 72.725258,74.922981 71.950111,82.499390 
	C61.681572,87.971016 54.248569,95.627258 49.685360,106.047333 
	C49.117619,107.343765 48.070854,108.490685 47.057869,109.522049 
	C40.729691,115.965103 32.917458,119.655029 24.240564,121.774315 
	C20.068184,122.793388 15.762600,123.603691 11.868354,125.309761 
	C9.150255,126.500565 6.500107,128.692245 4.839871,131.131332 
	C3.860555,132.570068 4.131609,135.923004 5.224522,137.368591 
	C6.079596,138.499603 9.063253,138.021347 11.354057,138.194778 
	C11.746720,138.028076 11.886470,137.924713 12.440936,137.848114 
	C14.237267,137.810593 15.618882,137.746292 17.381311,137.821625 
	C22.423443,138.994598 27.084763,140.027939 32.062950,141.131516 
	C30.692081,142.320801 29.633684,143.238998 28.273424,144.325302 
	C26.289900,145.987274 24.608238,147.481155 22.641972,149.073929 
	C21.559746,149.743362 20.762125,150.313889 19.592274,150.907181 
	C18.173277,153.083191 15.865375,155.595566 16.354052,157.311539 
	C17.247852,160.450073 20.469854,160.339127 23.446371,159.405182 
	C33.121914,156.369263 42.848446,153.495422 52.517502,150.439453 
	C56.363907,149.223740 60.111210,147.694473 64.149567,146.563660 
	C71.017891,149.340866 77.632027,151.884323 84.264923,154.377853 
	C91.245422,157.002060 91.884407,158.428452 91.185623,166.197327 
	C90.346352,175.528351 84.508514,182.241180 79.753212,189.574539 
	C78.929390,190.844986 78.582634,192.424759 77.727943,194.063293 
	C77.293571,195.176636 77.146790,196.088318 77.000000,197.000000 
z"/>
<path fill="#FFF201" opacity="1.000000" stroke="none" 
	d="
M142.010696,193.813782 
	C142.673584,194.625198 143.336487,195.436615 143.999695,196.624023 
	C121.979103,197.000000 99.958214,197.000000 77.468658,197.000000 
	C77.146790,196.088318 77.293571,195.176636 78.107651,194.125519 
	C79.741425,193.838867 81.189354,194.045135 81.598122,193.488403 
	C84.823151,189.095917 88.808624,184.926102 90.709801,179.976990 
	C93.467125,172.799225 94.674507,165.026031 96.691032,156.910919 
	C98.358185,156.910919 101.230949,156.910919 103.833054,156.910919 
	C92.875412,152.966080 81.772308,149.025620 70.730370,144.920609 
	C69.375687,144.417007 68.348328,143.032944 67.487808,141.913956 
	C72.188805,137.609131 72.088722,134.028656 66.959549,129.646576 
	C66.249802,128.869186 65.651604,128.365799 64.996490,127.513962 
	C64.238640,125.435165 63.537682,123.704811 62.884445,121.542847 
	C62.894081,119.087418 62.855999,117.063614 62.916889,114.646744 
	C63.815289,110.628723 64.614716,107.003754 65.690788,102.124382 
	C61.182388,104.598083 57.899162,106.399559 54.253372,108.399963 
	C55.021725,98.677345 69.470627,85.574425 79.772202,84.889755 
	C87.564003,88.388954 95.286987,91.316696 102.379662,95.352226 
	C116.529716,103.403229 129.747131,112.825798 140.618195,125.020187 
	C140.613739,127.294136 140.508179,129.550781 141.305481,131.422897 
	C146.366104,143.305206 143.698517,155.125778 141.502243,167.030518 
	C140.093506,174.666565 139.090286,182.379883 138.017258,190.074173 
	C137.610413,192.991470 138.819794,194.553741 142.010696,193.813782 
M89.327095,106.976265 
	C91.901070,105.495750 94.475044,104.015236 96.883530,102.629913 
	C94.554543,96.576653 89.491188,98.570549 85.790245,98.815384 
	C83.836342,98.944649 82.110947,102.528046 80.640388,104.155678 
	C83.435692,105.147171 85.990723,106.053444 89.327095,106.976265 
z"/>
<path fill="#102028" opacity="1.000000" stroke="none" 
	d="
M79.418312,84.819321 
	C69.470627,85.574425 55.021725,98.677345 54.253372,108.399963 
	C57.899162,106.399559 61.182388,104.598083 65.690788,102.124382 
	C64.614716,107.003754 63.815289,110.628723 62.673813,114.922691 
	C62.500088,117.719284 62.668407,119.846870 62.836727,121.974464 
	C63.537682,123.704811 64.238640,125.435165 64.976974,127.868706 
	C65.010788,129.045288 65.007225,129.518677 64.752350,129.995239 
	C64.333519,129.999084 64.165993,129.999786 63.725189,130.009918 
	C63.270050,130.032196 63.088203,130.045044 62.592796,129.920837 
	C61.829025,128.531403 61.378811,127.278976 60.952370,125.705597 
	C60.729374,124.605186 60.482601,123.825737 60.128784,122.597229 
	C60.112709,119.076553 60.203678,116.004944 60.489689,112.734924 
	C60.778824,111.994614 60.872913,111.452705 60.965240,110.558762 
	C60.674065,109.652649 60.169750,108.596954 60.125790,108.615791 
	C56.088615,110.345428 51.487022,111.422340 48.198227,114.105682 
	C39.394459,121.288689 29.471731,125.235703 18.428455,127.169685 
	C15.323482,127.713448 12.398880,129.559433 9.546368,131.095596 
	C8.757949,131.520187 8.526789,132.979568 8.039944,133.964157 
	C9.015464,134.302414 9.990985,134.640671 10.979358,135.389038 
	C11.028521,136.618805 11.064833,137.438461 11.101145,138.258118 
	C9.063253,138.021347 6.079596,138.499603 5.224522,137.368591 
	C4.131609,135.923004 3.860555,132.570068 4.839871,131.131332 
	C6.500107,128.692245 9.150255,126.500565 11.868354,125.309761 
	C15.762600,123.603691 20.068184,122.793388 24.240564,121.774315 
	C32.917458,119.655029 40.729691,115.965103 47.057869,109.522049 
	C48.070854,108.490685 49.117619,107.343765 49.685360,106.047333 
	C54.248569,95.627258 61.681572,87.971016 72.340958,82.452148 
	C75.113449,83.038231 77.265877,83.928780 79.418312,84.819321 
z"/>
<path fill="#D9C1AE" opacity="1.000000" stroke="none" 
	d="
M79.772202,84.889755 
	C77.265877,83.928780 75.113449,83.038231 72.570175,82.194923 
	C72.725258,74.922981 76.736656,72.272446 83.358543,71.631607 
	C88.089600,71.173759 93.516075,70.375214 97.360672,65.958702 
	C98.561684,64.579018 101.947433,64.981674 104.350449,64.806763 
	C106.172806,64.674103 108.022682,64.919426 110.546921,64.973160 
	C111.457840,64.960396 111.682144,64.971031 111.775284,65.261642 
	C110.993362,66.047501 110.342590,66.553375 109.455070,67.175095 
	C108.760201,67.559731 108.302078,67.828514 107.534927,68.081161 
	C106.814415,68.044373 106.402939,68.023720 105.912262,67.904083 
	C105.833076,67.805084 105.581268,67.834717 105.303131,67.541901 
	C102.768517,66.860878 100.312370,63.943752 98.351517,67.575012 
	C96.859894,70.337318 99.247162,71.124352 100.893837,72.362167 
	C100.537239,72.945740 100.283432,73.324913 99.667336,73.822365 
	C98.078972,73.473045 96.511879,73.333267 95.689415,72.477669 
	C92.994507,69.674232 90.477486,70.751816 88.353737,72.803329 
	C86.352585,74.736420 84.826233,75.098770 81.943100,74.375237 
	C80.170502,73.930397 77.604309,76.647873 75.394463,77.945419 
	C76.888397,79.073380 78.272812,80.404526 79.901550,81.282364 
	C82.436790,82.648766 85.271294,83.480316 87.746445,84.934349 
	C100.104408,92.194038 112.739182,99.064240 124.570641,107.109604 
	C132.388474,112.425728 139.014175,119.494987 146.359680,125.942642 
	C146.883377,125.126442 148.216324,124.011414 148.173141,122.952499 
	C147.968460,117.933311 147.491867,112.916359 146.862534,107.930115 
	C146.720718,106.806496 145.700012,105.701607 144.872894,104.776794 
	C143.371826,103.098389 141.712296,101.561714 140.161469,99.611847 
	C141.120636,99.198509 142.037216,99.139214 142.974609,99.044281 
	C142.995392,99.008644 142.923508,99.049164 143.057983,99.370094 
	C144.374100,99.791550 145.555756,99.892082 146.737411,99.992615 
	C146.517105,98.595139 146.296799,97.197662 146.067886,95.596222 
	C146.059280,95.392258 145.921738,95.007835 145.958725,94.730499 
	C145.700424,94.246231 145.405136,94.039307 145.089600,93.880508 
	C145.069351,93.928627 145.169250,93.898247 145.076447,93.641754 
	C144.668198,93.226700 144.352768,93.068146 143.926544,92.688782 
	C143.586670,92.208389 143.300232,92.057953 142.830505,91.729439 
	C141.826065,90.927429 140.947586,90.412659 140.042542,89.942978 
	C140.015961,89.988075 140.102997,89.929886 140.065262,89.557251 
	C144.562119,86.848305 144.958023,82.229271 146.413574,77.811203 
	C147.548294,75.380287 148.434219,73.195648 149.594162,71.011307 
	C150.233154,71.004501 150.598114,70.997391 150.963074,70.990273 
	C149.183472,76.133835 147.176956,81.215775 145.753601,86.456108 
	C145.287445,88.172363 145.732208,90.762962 146.800278,92.156921 
	C150.732025,97.288300 150.923630,97.731560 147.779327,102.031639 
	C148.060013,105.814796 148.279037,108.848946 148.514313,111.881828 
	C148.575134,112.666107 148.402145,113.675629 148.818924,114.193436 
	C153.427414,119.919151 150.152725,124.353043 145.892670,128.884827 
	C143.794144,127.612549 142.364349,126.218819 140.934555,124.825089 
	C129.747131,112.825798 116.529716,103.403229 102.379662,95.352226 
	C95.286987,91.316696 87.564003,88.388954 79.772202,84.889755 
z"/>
<path fill="#12222B" opacity="1.000000" stroke="none" 
	d="
M67.169281,142.056915 
	C68.348328,143.032944 69.375687,144.417007 70.730370,144.920609 
	C81.772308,149.025620 92.875412,152.966080 103.833054,156.910919 
	C101.230949,156.910919 98.358185,156.910919 96.691032,156.910919 
	C94.674507,165.026031 93.467125,172.799225 90.709801,179.976990 
	C88.808624,184.926102 84.823151,189.095917 81.598122,193.488403 
	C81.189354,194.045135 79.741425,193.838867 78.395233,193.923874 
	C78.582634,192.424759 78.929390,190.844986 79.753212,189.574539 
	C84.508514,182.241180 90.346352,175.528351 91.185623,166.197327 
	C91.884407,158.428452 91.245422,157.002060 84.264923,154.377853 
	C77.632027,151.884323 71.017891,149.340866 64.067047,146.286942 
	C63.471004,144.773026 63.203407,143.791565 63.042725,142.542603 
	C63.758327,141.821564 64.367012,141.368027 65.159012,141.185104 
	C65.951302,141.656128 66.560287,141.856522 67.169281,142.056915 
z"/>
<path fill="#13232C" opacity="1.000000" stroke="none" 
	d="
M140.618195,125.020187 
	C142.364349,126.218819 143.794144,127.612549 145.580292,129.042923 
	C148.473770,141.521347 148.694504,153.788956 145.540375,166.323700 
	C143.369965,174.949051 143.090622,184.050232 141.988373,193.376266 
	C138.819794,194.553741 137.610413,192.991470 138.017258,190.074173 
	C139.090286,182.379883 140.093506,174.666565 141.502243,167.030518 
	C143.698517,155.125778 146.366104,143.305206 141.305481,131.422897 
	C140.508179,129.550781 140.613739,127.294136 140.618195,125.020187 
z"/>
<path fill="#D9C1AD" opacity="1.000000" stroke="none" 
	d="
M148.746765,15.994126 
	C147.826523,17.712507 146.906265,19.430887 145.774048,21.545069 
	C147.291061,22.468826 148.624527,23.280817 150.296143,24.298710 
	C151.976044,21.214972 153.548859,18.327833 155.121658,15.440694 
	C155.456070,15.979893 155.790482,16.519091 156.124893,17.058290 
	C157.120819,14.641642 158.116730,12.224994 159.488403,9.284576 
	C161.226227,8.581965 162.588287,8.403123 163.950348,8.224279 
	C165.078140,7.889215 166.205948,7.554149 167.922363,7.237752 
	C169.343414,7.816639 170.175842,8.376859 171.008255,8.937078 
	C172.340607,10.701674 173.672958,12.466270 174.734985,14.771423 
	C174.944794,15.943340 175.424927,16.574701 175.905060,17.206062 
	C176.000580,18.281412 176.096100,19.356762 175.888458,20.810139 
	C175.318130,21.380133 175.183182,21.640574 175.180420,21.969490 
	C175.180420,21.969490 175.050400,22.437023 174.706757,22.844427 
	C172.592941,24.259060 170.822769,25.266287 169.000717,26.303026 
	C169.128632,26.752401 169.431168,27.815317 169.733704,28.878231 
	C168.500320,31.026833 164.806259,32.294346 167.721191,36.193924 
	C169.156570,36.432613 170.138214,36.243237 171.119873,36.053864 
	C175.534653,31.239101 175.534653,31.239101 180.727051,36.176437 
	C182.076889,37.437359 182.991394,38.259338 183.905899,39.081318 
	C183.905899,39.081318 183.894684,39.062107 183.893646,39.436089 
	C182.632904,41.619633 181.373199,43.429195 180.094315,44.899940 
	C180.076920,44.112953 180.078720,43.664787 180.138611,42.860828 
	C181.602951,37.953850 177.729172,36.689587 175.473145,34.269081 
	C173.616302,36.566853 171.990097,38.579231 170.157272,40.847294 
	C167.630020,38.787140 165.374649,36.948612 162.978622,34.995441 
	C164.058929,33.358505 165.360840,32.097977 165.741531,30.602882 
	C166.101471,29.189217 166.075577,26.866457 165.203461,26.100882 
	C162.510620,23.737015 159.332642,21.925787 156.248413,19.835779 
	C154.398849,22.426571 152.794434,24.673952 150.946152,27.262928 
	C148.134796,25.616528 145.477844,24.060551 142.335312,22.220207 
	C144.112747,19.851402 145.558701,17.924393 147.296036,15.996849 
	C147.973877,15.995586 148.360321,15.994855 148.746765,15.994126 
M173.554443,20.902279 
	C173.020706,19.300577 172.486954,17.698875 171.780563,15.579076 
	C171.971497,15.171414 172.496277,14.050956 173.613663,11.665214 
	C168.926239,11.362919 165.147049,11.119198 160.826782,10.840581 
	C160.235275,11.950457 159.410751,13.497561 159.235611,13.826172 
	C160.233917,16.774147 160.835266,18.549904 161.436600,20.325663 
	C161.135391,20.750494 160.834198,21.175325 160.532990,21.600157 
	C164.153580,22.313215 167.774170,23.026276 171.613663,23.782450 
	C172.045319,23.097324 172.564987,22.272474 173.554443,20.902279 
M164.631454,9.460233 
	C164.631454,9.460233 164.429031,9.329992 164.429031,9.329992 
	C164.429031,9.329992 164.449265,9.591424 164.631454,9.460233 
z"/>
<path fill="#121F27" opacity="1.000000" stroke="none" 
	d="
M62.935814,142.810089 
	C63.203407,143.791565 63.471004,144.773026 63.821117,146.031219 
	C60.111210,147.694473 56.363907,149.223740 52.517502,150.439453 
	C42.848446,153.495422 33.121914,156.369263 23.446371,159.405182 
	C20.469854,160.339127 17.247852,160.450073 16.354052,157.311539 
	C15.865375,155.595566 18.173277,153.083191 19.603432,151.298859 
	C19.998163,152.451324 20.009504,153.234894 19.811256,154.328995 
	C18.464808,158.853012 22.051773,156.997696 23.005333,156.771484 
	C27.587128,155.684509 32.120125,154.301697 36.554478,152.702393 
	C45.388412,149.516312 54.146435,146.119720 62.935814,142.810089 
z"/>
<path fill="#13212A" opacity="1.000000" stroke="none" 
	d="
M28.575287,144.157196 
	C29.633684,143.238998 30.692081,142.320801 32.062950,141.131516 
	C27.084763,140.027939 22.423443,138.994598 17.380241,137.502594 
	C16.998962,136.404800 16.999565,135.765671 17.410139,135.055801 
	C27.891323,137.462006 37.976528,138.945969 48.278309,136.146729 
	C50.756180,135.473434 53.410957,135.451172 55.747974,135.369064 
	C54.342999,136.376541 53.174427,137.144455 51.610725,137.990356 
	C49.942596,138.388153 48.686409,138.833405 47.393768,139.006592 
	C40.989727,139.864609 34.783859,141.172150 29.661205,145.734283 
	C29.097015,145.047806 28.836153,144.602509 28.575287,144.157196 
z"/>
<path fill="#0A1920" opacity="1.000000" stroke="none" 
	d="
M28.273426,144.325302 
	C28.836153,144.602509 29.097015,145.047806 29.601582,146.046432 
	C30.975655,146.846786 32.268475,147.578888 33.210445,147.263397 
	C40.142254,144.941910 47.003963,142.411102 54.273788,139.963135 
	C55.174053,140.011124 55.688278,140.042191 56.034782,140.389313 
	C47.255260,144.192673 38.643463,147.679962 29.824970,150.852264 
	C27.387711,150.016541 25.157143,149.495789 22.926577,148.975037 
	C24.608238,147.481155 26.289900,145.987274 28.273426,144.325302 
z"/>
<path fill="#D8BFAB" opacity="1.000000" stroke="none" 
	d="
M128.574280,40.365585 
	C124.676079,36.474098 129.885117,35.830124 131.221893,33.210506 
	C127.963470,28.808331 125.173065,23.913803 131.826447,19.288349 
	C132.480713,19.471510 132.624969,19.612978 132.616058,20.056793 
	C130.380997,23.116478 129.458069,25.767591 132.992462,28.336342 
	C131.595352,32.564827 133.342422,35.015671 138.878052,37.413902 
	C137.180984,37.479721 135.293182,37.503033 133.667160,36.862152 
	C130.608307,35.656544 129.269501,36.514008 129.102295,39.888130 
	C128.928482,40.049683 128.574280,40.365585 128.574280,40.365585 
z"/>
<path fill="#D1BBAA" opacity="1.000000" stroke="none" 
	d="
M151.157043,70.706833 
	C150.598114,70.997391 150.233154,71.004501 149.645599,70.658127 
	C150.289688,68.352516 151.163406,66.403488 152.021774,64.447723 
	C155.166534,57.282402 155.114929,57.137127 148.123215,52.580238 
	C148.478348,51.957096 148.725052,51.548035 149.294189,51.222198 
	C152.764893,54.145073 155.913177,56.984734 159.043945,60.113995 
	C159.018295,60.596848 159.010147,60.790100 159.001984,60.983353 
	C157.615952,62.015434 155.925186,62.814735 154.916565,64.135124 
	C153.467484,66.032173 152.515289,68.308784 151.157043,70.706833 
z"/>
<path fill="#D1BEAD" opacity="1.000000" stroke="none" 
	d="
M159.201309,61.250511 
	C159.010147,60.790100 159.018295,60.596848 159.398010,60.147125 
	C162.902206,58.199036 161.337677,56.312275 160.012146,54.413891 
	C158.985474,52.943527 157.995956,51.447216 157.349121,49.952625 
	C160.601562,51.862404 162.681549,56.268551 167.467651,53.268681 
	C168.451767,54.000893 169.219025,54.528179 169.990204,55.256332 
	C169.994141,55.457199 170.006332,55.858826 170.006332,55.858826 
	C167.322617,56.207935 163.982712,55.061634 163.254379,59.509819 
	C163.114136,60.366470 160.742752,60.857807 159.201309,61.250511 
z"/>
<path fill="#FEFBF6" opacity="1.000000" stroke="none" 
	d="
M180.113495,45.238766 
	C181.373199,43.429195 182.632904,41.619633 183.889069,39.452019 
	C187.680313,39.909359 185.844925,42.249222 184.947281,43.893017 
	C183.507431,46.529716 181.785965,49.042240 179.930801,51.409161 
	C179.089706,52.482254 177.642761,53.080482 176.198608,53.558270 
	C176.980682,51.582203 178.079086,49.966805 179.030624,48.269096 
	C179.144257,48.066395 178.458298,47.415539 178.214752,46.694870 
	C178.569809,45.986637 178.853073,45.555939 179.374329,45.208023 
	C179.779358,45.273464 179.946442,45.256119 180.113495,45.238766 
z"/>
<path fill="#0F222D" opacity="1.000000" stroke="none" 
	d="
M22.641972,149.073944 
	C25.157143,149.495789 27.387711,150.016541 29.637630,151.175903 
	C26.444933,152.549149 23.232887,153.283798 20.020844,154.018463 
	C20.009504,153.234894 19.998163,152.451324 19.975662,151.276093 
	C20.762125,150.313889 21.559746,149.743362 22.641972,149.073944 
z"/>
<path fill="#D9C1AD" opacity="1.000000" stroke="none" 
	d="
M178.142960,46.972408 
	C178.458298,47.415539 179.144257,48.066395 179.030624,48.269096 
	C178.079086,49.966805 176.980682,51.582203 175.822327,53.551033 
	C173.951294,54.700096 172.184464,55.520531 170.211975,56.099895 
	C170.006332,55.858826 169.994141,55.457199 170.001968,54.961586 
	C170.041092,53.625389 170.072403,52.784809 170.284515,51.981319 
	C170.465302,52.018414 170.831467,52.064964 170.996887,52.377869 
	C172.115356,52.464703 173.068405,52.238632 174.009460,52.007805 
	C173.997452,52.003056 174.014847,52.024502 174.223785,51.935715 
	C174.655502,51.214695 174.878265,50.582458 175.267303,49.682087 
	C176.336716,48.600105 177.239838,47.786255 178.142960,46.972408 
z"/>
<path fill="#D8BFAB" opacity="1.000000" stroke="none" 
	d="
M125.612717,49.571236 
	C126.682434,46.733349 127.752144,43.895458 128.698059,40.711578 
	C128.574280,40.365585 128.928482,40.049683 129.404541,39.979416 
	C130.960709,40.521801 132.040833,41.134453 133.082672,42.069889 
	C133.029663,42.608871 133.014923,42.825066 132.668732,43.112015 
	C130.277451,45.503750 128.217575,47.824738 126.020569,50.002960 
	C125.883415,49.860191 125.612717,49.571236 125.612717,49.571236 
z"/>
<path fill="#D8BFAB" opacity="1.000000" stroke="none" 
	d="
M148.823120,15.643709 
	C148.360321,15.994855 147.973877,15.995586 147.212830,15.655804 
	C143.958740,13.954557 141.079254,12.593825 138.056824,11.067497 
	C137.913895,10.901902 137.625549,10.572867 137.625549,10.572867 
	C142.364777,9.802795 145.996719,11.677242 148.823120,15.643709 
z"/>
<path fill="#CEB8A7" opacity="1.000000" stroke="none" 
	d="
M112.870834,62.870605 
	C115.070038,60.402630 117.269249,57.934654 119.893814,55.534885 
	C120.543724,55.814171 120.804390,55.961338 120.961243,56.350090 
	C118.434616,58.983810 116.047905,61.312031 113.463379,63.448067 
	C113.133980,63.127457 113.002403,62.999031 112.870834,62.870605 
z"/>
<path fill="#FEFBF6" opacity="1.000000" stroke="none" 
	d="
M170.134216,28.914188 
	C169.431168,27.815317 169.128632,26.752401 169.000717,26.303026 
	C170.822769,25.266287 172.592941,24.259060 174.662048,23.082909 
	C174.756958,25.858339 174.483215,28.751568 170.134216,28.914188 
z"/>
<path fill="#D8BFAB" opacity="1.000000" stroke="none" 
	d="
M132.120041,19.117868 
	C133.618454,16.239536 135.333282,13.573374 137.336823,10.740040 
	C137.625549,10.572867 137.913895,10.901902 137.971359,11.397627 
	C136.275620,14.513716 134.522415,17.134081 132.769226,19.754448 
	C132.624969,19.612978 132.480713,19.471510 132.120041,19.117868 
z"/>
<path fill="#FEFCF7" opacity="1.000000" stroke="none" 
	d="
M163.964539,7.859785 
	C162.588287,8.403123 161.226227,8.581965 159.570129,8.942440 
	C158.546890,8.428482 157.817703,7.732890 157.088516,7.037299 
	C159.456924,8.174737 162.331177,2.795467 163.964539,7.859785 
z"/>
<path fill="#D8BFAB" opacity="1.000000" stroke="none" 
	d="
M121.101166,56.044590 
	C120.804390,55.961338 120.543724,55.814171 120.194733,55.417381 
	C121.724701,53.444298 123.379097,51.656929 125.323105,49.720398 
	C125.612717,49.571236 125.883415,49.860191 125.910126,50.318584 
	C124.324936,52.532848 122.713051,54.288719 121.101166,56.044590 
z"/>
<path fill="#102028" opacity="1.000000" stroke="none" 
	d="
M17.000170,135.126556 
	C16.999565,135.765671 16.998962,136.404800 16.999428,137.362946 
	C15.618882,137.746292 14.237267,137.810593 12.597658,137.549362 
	C13.576082,136.475235 14.812500,135.726639 16.290842,134.988846 
	C16.532766,134.999649 17.000170,135.126556 17.000170,135.126556 
z"/>
<path fill="#13212A" opacity="1.000000" stroke="none" 
	d="
M16.048920,134.978043 
	C14.812500,135.726639 13.576082,136.475235 12.182941,137.522583 
	C11.886470,137.924713 11.746720,138.028076 11.354057,138.194778 
	C11.064833,137.438461 11.028521,136.618805 11.225452,135.137299 
	C12.988771,134.642990 14.518846,134.810516 16.048920,134.978043 
z"/>
<path fill="#FEFCF7" opacity="1.000000" stroke="none" 
	d="
M171.001678,8.586586 
	C170.175842,8.376859 169.343414,7.816639 168.253174,7.092417 
	C168.480042,6.417058 168.964722,5.905701 169.449417,5.394343 
	C169.964630,6.341593 170.479858,7.288843 171.001678,8.586586 
z"/>
<path fill="#FEFBF6" opacity="1.000000" stroke="none" 
	d="
M183.929932,38.698437 
	C182.991394,38.259338 182.076889,37.437359 181.025085,36.333885 
	C181.909836,36.806778 182.931885,37.561165 183.929932,38.698437 
z"/>
<path fill="#FEFBF6" opacity="1.000000" stroke="none" 
	d="
M170.710663,36.035492 
	C170.138214,36.243237 169.156570,36.432613 168.008774,36.349190 
	C168.662247,36.056637 169.481842,36.036880 170.710663,36.035492 
z"/>
<path fill="#FEFBF6" opacity="1.000000" stroke="none" 
	d="
M175.918091,16.874704 
	C175.424927,16.574701 174.944794,15.943340 174.697540,15.140427 
	C175.263992,15.493698 175.597549,16.018522 175.918091,16.874704 
z"/>
<path fill="#CEB8A7" opacity="1.000000" stroke="none" 
	d="
M111.906448,64.981659 
	C111.682144,64.971031 111.457840,64.960396 110.895859,64.912109 
	C111.122314,64.259727 111.686432,63.645016 112.560684,62.950455 
	C113.002403,62.999031 113.133980,63.127457 113.265236,63.644722 
	C112.812088,64.349594 112.359268,64.665627 111.906448,64.981659 
z"/>
<path fill="#FEFBF6" opacity="1.000000" stroke="none" 
	d="
M175.366486,21.853514 
	C175.183182,21.640574 175.318130,21.380133 175.790436,21.088543 
	C175.926117,21.284781 175.778458,21.534321 175.366486,21.853514 
z"/>
<path fill="#0E2129" opacity="1.000000" stroke="none" 
	d="
M88.936417,106.967987 
	C85.990723,106.053444 83.435692,105.147171 80.640388,104.155678 
	C82.110947,102.528046 83.836342,98.944649 85.790245,98.815384 
	C89.491188,98.570549 94.554543,96.576653 96.883530,102.629913 
	C94.475044,104.015236 91.901070,105.495750 88.936417,106.967987 
z"/>
<path fill="#0F1C24" opacity="1.000000" stroke="none" 
	d="
M67.487808,141.913956 
	C66.560287,141.856522 65.951302,141.656128 65.298897,140.869171 
	C66.026527,138.536087 66.797585,136.789581 67.568642,135.043060 
	C66.410286,134.773071 65.251923,134.503098 64.184532,133.912994 
	C65.150330,132.431961 66.025162,131.271057 66.945206,130.064972 
	C66.990417,130.019775 67.071083,129.920593 67.071083,129.920593 
	C72.088722,134.028656 72.188805,137.609131 67.487808,141.913956 
z"/>
<path fill="#11212A" opacity="1.000000" stroke="none" 
	d="
M62.884445,121.542847 
	C62.668407,119.846870 62.500088,117.719284 62.574844,115.315750 
	C62.855999,117.063614 62.894081,119.087418 62.884445,121.542847 
z"/>
<path fill="#11212A" opacity="1.000000" stroke="none" 
	d="
M65.003662,129.992065 
	C65.007225,129.518677 65.010788,129.045288 65.033875,128.217148 
	C65.651604,128.365799 66.249802,128.869186 66.959549,129.646576 
	C67.071083,129.920593 66.990417,130.019775 66.631134,130.027679 
	C65.849121,130.021057 65.426392,130.006561 65.003662,129.992065 
z"/>
<path fill="#FECA13" opacity="1.000000" stroke="none" 
	d="
M16.290844,134.988846 
	C14.518846,134.810516 12.988771,134.642990 11.212603,134.727188 
	C9.990985,134.640671 9.015464,134.302414 8.039944,133.964157 
	C8.526789,132.979568 8.757949,131.520187 9.546368,131.095596 
	C12.398880,129.559433 15.323482,127.713448 18.428455,127.169685 
	C29.471731,125.235703 39.394459,121.288689 48.198227,114.105682 
	C51.487022,111.422340 56.088615,110.345428 60.125790,108.615791 
	C60.169750,108.596954 60.674065,109.652649 60.698929,110.663223 
	C60.387798,111.724251 60.341217,112.328796 60.294640,112.933334 
	C60.203678,116.004944 60.112709,119.076553 60.075752,122.927979 
	C60.396046,124.480713 60.662319,125.253632 60.928593,126.026558 
	C61.378811,127.278976 61.829025,128.531403 62.589722,130.225357 
	C62.238026,131.425873 61.575848,132.184830 60.947163,132.965363 
	C60.980656,132.986908 60.965340,132.908737 60.610252,132.948212 
	C59.121239,133.639587 57.987312,134.291504 56.631943,134.970367 
	C56.410503,134.997330 55.984379,135.129517 55.984379,135.129517 
	C53.410957,135.451172 50.756180,135.473434 48.278309,136.146729 
	C37.976528,138.945969 27.891323,137.462006 17.410139,135.055801 
	C17.000170,135.126556 16.532766,134.999649 16.290844,134.988846 
M50.362164,117.947723 
	C44.343727,119.341309 44.343727,119.341309 43.606670,123.585808 
	C49.624783,123.883240 51.999851,122.137230 50.362164,117.947723 
z"/>
<path fill="#0D222D" opacity="1.000000" stroke="none" 
	d="
M55.747974,135.369064 
	C55.984379,135.129517 56.410503,134.997330 56.978390,134.960693 
	C58.685963,134.252289 59.825653,133.580521 60.965340,132.908737 
	C60.965340,132.908737 60.980656,132.986908 61.294510,132.951080 
	C62.405071,131.943665 63.201775,130.972076 63.998474,130.000473 
	C64.165993,129.999786 64.333519,129.999084 64.752350,129.995239 
	C65.426392,130.006561 65.849121,130.021057 66.585922,130.072876 
	C66.025162,131.271057 65.150330,132.431961 64.162140,134.256042 
	C61.433361,136.637207 58.817928,138.355225 56.202499,140.073242 
	C55.688278,140.042191 55.174053,140.011124 54.277054,139.640839 
	C53.264801,138.838531 52.635326,138.375458 52.005852,137.912369 
	C53.174427,137.144455 54.342999,136.376541 55.747974,135.369064 
z"/>
<path fill="#11212A" opacity="1.000000" stroke="none" 
	d="
M63.725189,130.009918 
	C63.201775,130.972076 62.405071,131.943665 61.261017,132.929535 
	C61.575848,132.184830 62.238026,131.425873 62.903278,130.362396 
	C63.088203,130.045044 63.270050,130.032196 63.725189,130.009918 
z"/>
<path fill="#11212A" opacity="1.000000" stroke="none" 
	d="
M60.952370,125.705597 
	C60.662319,125.253632 60.396046,124.480713 60.182800,123.377037 
	C60.482601,123.825737 60.729374,124.605186 60.952370,125.705597 
z"/>
<path fill="#11212A" opacity="1.000000" stroke="none" 
	d="
M60.489685,112.734924 
	C60.341217,112.328796 60.387798,111.724251 60.700691,111.015259 
	C60.872913,111.452705 60.778824,111.994614 60.489685,112.734924 
z"/>
<path fill="#0B232E" opacity="1.000000" stroke="none" 
	d="
M140.118896,99.965881 
	C141.712296,101.561714 143.371826,103.098389 144.872894,104.776794 
	C145.700012,105.701607 146.720718,106.806496 146.862534,107.930115 
	C147.491867,112.916359 147.968460,117.933311 148.173141,122.952499 
	C148.216324,124.011414 146.883377,125.126442 146.359680,125.942642 
	C139.014175,119.494987 132.388474,112.425728 124.570641,107.109604 
	C112.739182,99.064240 100.104408,92.194038 87.746445,84.934349 
	C85.271294,83.480316 82.436790,82.648766 79.901550,81.282364 
	C78.272812,80.404526 76.888397,79.073380 75.394463,77.945419 
	C77.604309,76.647873 80.170502,73.930397 81.943100,74.375237 
	C84.826233,75.098770 86.352585,74.736420 88.353737,72.803329 
	C90.477486,70.751816 92.994507,69.674232 95.689415,72.477669 
	C96.511879,73.333267 98.078972,73.473045 99.958565,73.958374 
	C106.225182,76.899498 111.838280,79.822899 117.717163,82.932114 
	C122.666031,86.384544 127.349129,89.651169 132.055710,93.226120 
	C132.718292,93.922569 133.357376,94.310677 134.259552,94.733467 
	C134.677551,94.853584 134.832458,94.939018 135.044952,95.363327 
	C136.774643,97.123421 138.446762,98.544647 140.118896,99.965881 
z"/>
<path fill="#0A222F" opacity="1.000000" stroke="none" 
	d="
M111.775284,65.261642 
	C112.359268,64.665627 112.812088,64.349594 113.463058,63.836906 
	C116.047905,61.312031 118.434616,58.983810 120.961243,56.350090 
	C122.713051,54.288719 124.324936,52.532848 126.047272,50.461349 
	C128.217575,47.824738 130.277451,45.503750 132.899155,43.363075 
	C138.312256,46.627033 143.163528,49.710678 148.014786,52.794319 
	C155.114929,57.137127 155.166534,57.282402 152.021774,64.447723 
	C151.163406,66.403488 150.289688,68.352516 149.371582,70.657822 
	C148.434219,73.195648 147.548294,75.380287 146.044128,77.848480 
	C143.907455,80.773232 142.389023,83.414436 141.573761,84.832520 
	C138.341980,84.076225 136.008591,83.530167 133.470169,82.751831 
	C131.857391,81.391441 130.449631,80.263321 128.831848,78.844810 
	C127.688972,77.739357 126.840416,76.791115 125.806038,76.136497 
	C123.537109,74.700584 121.174065,73.413361 118.505783,72.010643 
	C115.338684,70.323647 112.515259,68.691444 109.691826,67.059242 
	C110.342590,66.553375 110.993362,66.047501 111.775284,65.261642 
z"/>
<path fill="#0A222F" opacity="1.000000" stroke="none" 
	d="
M142.956467,92.016678 
	C143.300232,92.057953 143.586670,92.208389 144.035858,92.931839 
	C144.560364,93.563225 144.864807,93.730736 145.169250,93.898247 
	C145.169250,93.898247 145.069351,93.928627 145.141144,94.126350 
	C145.449219,94.551994 145.685471,94.779915 145.921738,95.007835 
	C145.921738,95.007835 146.059280,95.392258 146.041626,95.986755 
	C144.990494,97.403893 143.957001,98.226532 142.923508,99.049164 
	C142.923508,99.049164 142.995392,99.008644 142.954620,98.690834 
	C140.568069,96.633209 138.222275,94.893387 135.886795,93.128647 
	C135.897095,93.103737 135.917465,93.152534 135.816116,92.896271 
	C135.390518,92.498108 135.066254,92.356209 134.791901,92.183205 
	C134.841782,92.152107 134.840927,92.269676 134.716995,91.959297 
	C134.191818,91.482979 133.790573,91.317039 133.160248,91.099838 
	C132.611923,90.727463 132.292679,90.406349 131.861633,89.843460 
	C131.447479,89.430412 131.145111,89.259148 130.890869,89.074722 
	C130.938980,89.061562 130.938736,89.161331 130.773102,88.875420 
	C130.200745,88.443916 129.794022,88.298332 129.271881,88.174217 
	C129.156448,88.195694 129.021088,88.003822 128.883606,87.774628 
	C128.435684,87.384743 128.125259,87.224045 127.629242,87.032135 
	C127.182709,86.935295 126.991913,86.782219 126.790939,86.207092 
	C126.122421,85.596985 125.534248,85.321487 124.968643,85.021713 
	C124.991219,84.997444 124.971199,85.060516 124.789261,84.798004 
	C124.208717,84.405464 123.810112,84.275429 123.283676,84.149368 
	C123.155838,84.153336 123.015144,83.939697 122.886932,83.726822 
	C122.528633,83.252747 122.240822,83.101135 121.934052,83.042709 
	C121.972839,83.026314 121.949791,83.107307 121.826920,82.860275 
	C121.366463,82.513000 121.028885,82.412758 120.774673,82.265594 
	C120.858047,82.218666 120.742828,82.371422 120.666855,82.018562 
	C119.523689,81.155876 118.456505,80.646049 117.276031,80.160858 
	C117.162743,80.185493 117.028526,79.996407 116.845749,79.754349 
	C116.286476,79.384148 115.909966,79.255997 115.377335,79.122169 
	C115.221207,79.116493 115.004265,78.891617 114.864456,78.686539 
	C114.474213,78.234879 114.173271,78.114571 113.879288,78.104271 
	C113.936745,78.088013 113.864029,78.182739 113.858795,77.817230 
	C112.875282,76.977623 111.897011,76.503517 110.622620,75.904602 
	C109.161217,75.367447 107.995941,74.955086 106.828003,74.110245 
	C105.345978,73.173378 103.866631,72.668999 102.283081,72.205841 
	C102.178879,72.247055 102.017517,72.091545 101.965195,71.743950 
	C101.421173,70.477501 100.929474,69.558647 100.247414,68.284058 
	C102.364685,68.105690 103.972977,67.970207 105.581268,67.834717 
	C105.581268,67.834717 105.833076,67.805084 106.095428,68.154854 
	C106.945938,68.631401 107.534096,68.758179 108.094833,68.928612 
	C108.067413,68.972260 108.062416,68.869286 108.202415,69.143707 
	C108.909645,69.603241 109.476883,69.788353 110.027428,69.989960 
	C110.010742,70.006454 110.020203,69.960876 110.074074,70.324387 
	C111.167557,71.029480 112.207176,71.371071 113.197655,71.769058 
	C113.148521,71.825455 113.170082,71.677414 113.306915,72.018875 
	C114.134125,72.529297 114.824493,72.698257 115.656136,72.860535 
	C115.797409,72.853859 115.985764,73.064896 116.123703,73.278427 
	C116.564392,73.628754 116.867142,73.765564 117.123047,73.905380 
	C117.076218,73.908401 117.116356,73.823563 117.112946,74.135895 
	C120.826843,76.331230 123.162247,80.942055 128.233765,80.253510 
	C128.206284,80.409431 128.091431,80.704521 128.180389,81.041992 
	C129.225586,81.882057 130.181808,82.384659 131.092773,82.909668 
	C131.047516,82.932091 131.077545,82.835640 131.188034,83.097610 
	C131.644501,83.459755 131.990463,83.559937 132.363220,83.629456 
	C132.389999,83.598785 132.469833,83.582741 132.377670,83.934601 
	C134.891327,86.167603 137.497162,88.048744 140.102997,89.929886 
	C140.102997,89.929886 140.015961,89.988075 140.068207,90.293594 
	C141.065796,91.071632 142.011139,91.544151 142.956467,92.016678 
z"/>
<path fill="#14242A" opacity="1.000000" stroke="none" 
	d="
M140.065262,89.557251 
	C137.497162,88.048744 134.891327,86.167603 132.526978,83.847626 
	C133.070694,83.267227 133.372940,83.125664 133.675201,82.984100 
	C136.008591,83.530167 138.341980,84.076225 141.573761,84.832520 
	C142.389023,83.414436 143.907455,80.773232 145.795349,78.094757 
	C144.958023,82.229271 144.562119,86.848305 140.065262,89.557251 
z"/>
<path fill="#CCBBAB" opacity="1.000000" stroke="none" 
	d="
M106.830666,74.542732 
	C107.995941,74.955086 109.161217,75.367447 110.739540,76.200409 
	C112.056404,77.141594 112.960213,77.662170 113.864029,78.182739 
	C113.864029,78.182739 113.936745,78.088013 113.993073,78.337135 
	C114.367683,78.688042 114.685974,78.789833 115.004265,78.891617 
	C115.004265,78.891617 115.221207,79.116493 115.550148,79.376648 
	C116.262238,79.756676 116.645378,79.876541 117.028526,79.996407 
	C117.028526,79.996407 117.162743,80.185493 117.426147,80.413361 
	C118.012589,80.858376 118.335640,81.075523 118.347382,81.648209 
	C117.841187,82.251259 117.646286,82.498787 117.451385,82.746307 
	C111.838280,79.822899 106.225182,76.899498 100.320847,73.840088 
	C100.283432,73.324913 100.537239,72.945740 101.149338,72.350685 
	C101.677589,72.120392 101.847549,72.105972 102.017517,72.091545 
	C102.017517,72.091545 102.178879,72.247055 102.527687,72.482643 
	C104.194550,73.326401 105.512611,73.934570 106.830666,74.542732 
z"/>
<path fill="#14242A" opacity="1.000000" stroke="none" 
	d="
M135.876495,93.153564 
	C138.222275,94.893387 140.568069,96.633209 142.933838,98.726471 
	C142.037216,99.139214 141.120636,99.198509 140.161469,99.611847 
	C138.446762,98.544647 136.774643,97.123421 135.319794,95.259323 
	C135.650223,94.262154 135.763367,93.707863 135.876495,93.153564 
z"/>
<path fill="#CEB8A7" opacity="1.000000" stroke="none" 
	d="
M115.985764,73.064896 
	C115.985764,73.064896 115.797409,72.853859 115.437500,72.600006 
	C114.441757,72.123238 113.805916,71.900330 113.170082,71.677414 
	C113.170082,71.677414 113.148521,71.825455 113.019173,71.509735 
	C111.933281,70.782967 110.976746,70.371925 110.020203,69.960876 
	C110.020203,69.960876 110.010742,70.006454 109.850067,69.753784 
	C109.147064,69.290504 108.604744,69.079895 108.062416,68.869286 
	C108.062416,68.869286 108.067413,68.972260 108.034065,68.728699 
	C108.000717,68.485138 107.843964,68.097305 107.843964,68.097305 
	C108.302078,67.828514 108.760201,67.559731 109.455070,67.175095 
	C112.515259,68.691444 115.338684,70.323647 118.550751,72.329453 
	C118.331711,73.076553 117.724037,73.450058 117.116356,73.823563 
	C117.116356,73.823563 117.076218,73.908401 117.019447,73.659065 
	C116.637039,73.294785 116.311401,73.179840 115.985764,73.064896 
z"/>
<path fill="#14242A" opacity="1.000000" stroke="none" 
	d="
M101.965195,71.743950 
	C101.847549,72.105972 101.677589,72.120392 101.252136,72.146301 
	C99.247162,71.124352 96.859894,70.337318 98.351517,67.575012 
	C100.312370,63.943752 102.768517,66.860878 105.303131,67.541901 
	C103.972977,67.970207 102.364685,68.105690 100.247414,68.284058 
	C100.929474,69.558647 101.421173,70.477501 101.965195,71.743950 
z"/>
<path fill="#14242A" opacity="1.000000" stroke="none" 
	d="
M143.057983,99.370102 
	C143.957001,98.226532 144.990494,97.403893 146.050232,96.190720 
	C146.296799,97.197662 146.517105,98.595139 146.737411,99.992615 
	C145.555756,99.892082 144.374100,99.791550 143.057983,99.370102 
z"/>
<path fill="#14242A" opacity="1.000000" stroke="none" 
	d="
M142.830505,91.729439 
	C142.011139,91.544151 141.065796,91.071632 140.094788,90.248497 
	C140.947586,90.412659 141.826065,90.927429 142.830505,91.729439 
z"/>
<path fill="#14242A" opacity="1.000000" stroke="none" 
	d="
M107.534927,68.081161 
	C107.843964,68.097305 108.000717,68.485138 108.061493,68.685051 
	C107.534096,68.758179 106.945938,68.631401 106.174614,68.253845 
	C106.402939,68.023720 106.814415,68.044373 107.534927,68.081161 
z"/>
<path fill="#14242A" opacity="1.000000" stroke="none" 
	d="
M145.958725,94.730499 
	C145.685471,94.779915 145.449219,94.551994 145.161407,94.078232 
	C145.405136,94.039307 145.700424,94.246231 145.958725,94.730499 
z"/>
<path fill="#14242A" opacity="1.000000" stroke="none" 
	d="
M145.076447,93.641754 
	C144.864807,93.730736 144.560364,93.563225 144.146622,93.152649 
	C144.352768,93.068146 144.668198,93.226700 145.076447,93.641754 
z"/>
<path fill="#FDCA19" opacity="1.000000" stroke="none" 
	d="
M56.034782,140.389313 
	C58.817928,138.355225 61.433361,136.637207 64.071182,134.576172 
	C65.251923,134.503098 66.410286,134.773071 67.568642,135.043060 
	C66.797585,136.789581 66.026527,138.536087 65.115585,140.598541 
	C64.367012,141.368027 63.758327,141.821564 63.042725,142.542603 
	C54.146435,146.119720 45.388412,149.516312 36.554478,152.702393 
	C32.120125,154.301697 27.587128,155.684509 23.005333,156.771484 
	C22.051773,156.997696 18.464808,158.853012 19.811255,154.328979 
	C23.232887,153.283798 26.444933,152.549149 29.844322,151.490875 
	C38.643463,147.679962 47.255260,144.192673 56.034782,140.389313 
z"/>
<path fill="#0F232C" opacity="1.000000" stroke="none" 
	d="
M132.616058,20.056793 
	C134.522415,17.134081 136.275620,14.513716 138.114288,11.563222 
	C141.079254,12.593825 143.958740,13.954557 146.921432,15.656335 
	C145.558701,17.924393 144.112747,19.851402 142.335312,22.220207 
	C145.477844,24.060551 148.134796,25.616528 150.946152,27.262928 
	C152.794434,24.673952 154.398849,22.426571 156.248413,19.835779 
	C159.332642,21.925787 162.510620,23.737015 165.203461,26.100882 
	C166.075577,26.866457 166.101471,29.189217 165.741531,30.602882 
	C165.360840,32.097977 164.058929,33.358505 162.978622,34.995441 
	C165.374649,36.948612 167.630020,38.787140 170.157272,40.847294 
	C171.990097,38.579231 173.616302,36.566853 175.473145,34.269081 
	C177.729172,36.689587 181.602951,37.953850 179.878433,42.980560 
	C179.418869,44.012463 179.277603,44.568848 179.136353,45.125237 
	C178.853073,45.555939 178.569809,45.986637 178.214752,46.694870 
	C177.239838,47.786255 176.336716,48.600105 175.005310,49.852100 
	C174.389648,50.868332 174.202240,51.446415 174.014832,52.024498 
	C174.014847,52.024502 173.997452,52.003056 173.611176,52.002674 
	C172.427094,52.023182 171.629288,52.044071 170.831467,52.064964 
	C170.831467,52.064964 170.465302,52.018414 170.166260,51.708755 
	C169.224228,50.658978 168.581253,49.918858 167.843475,48.920425 
	C167.449463,48.464123 167.150208,48.266129 166.897308,48.062698 
	C166.943634,48.057266 166.929443,48.149483 166.830093,47.893421 
	C166.419189,47.464539 166.107651,47.291721 165.817398,47.132587 
	C165.838699,47.146271 165.790970,47.165298 165.677063,46.855743 
	C160.368088,42.364792 155.559067,37.521229 149.862488,34.200077 
	C144.807968,31.253248 138.767792,29.997049 133.162704,27.994574 
	C129.458069,25.767591 130.380997,23.116478 132.616058,20.056793 
z"/>
<path fill="#14232A" opacity="1.000000" stroke="none" 
	d="
M173.319550,21.174950 
	C172.564987,22.272474 172.045319,23.097324 171.613663,23.782450 
	C167.774170,23.026276 164.153580,22.313215 160.532990,21.600157 
	C160.834198,21.175325 161.135391,20.750494 161.436600,20.325663 
	C160.835266,18.549904 160.233917,16.774147 159.235611,13.826172 
	C159.410751,13.497561 160.235275,11.950457 160.826782,10.840581 
	C165.147049,11.119198 168.926239,11.362919 173.613663,11.665214 
	C172.496277,14.050956 171.971497,15.171414 171.780563,15.579076 
	C172.486954,17.698875 173.020706,19.300577 173.319550,21.174950 
z"/>
<path fill="#CAB4A3" opacity="1.000000" stroke="none" 
	d="
M179.374313,45.208023 
	C179.277603,44.568848 179.418869,44.012463 179.820328,43.336349 
	C180.078720,43.664787 180.076920,44.112953 180.094330,44.899948 
	C179.946442,45.256119 179.779358,45.273464 179.374313,45.208023 
z"/>
<path fill="#FEFCF7" opacity="1.000000" stroke="none" 
	d="
M164.540359,9.525828 
	C164.449265,9.591424 164.429031,9.329992 164.429031,9.329992 
	C164.429031,9.329992 164.631454,9.460233 164.540359,9.525828 
z"/>
<path fill="#870418" opacity="1.000000" stroke="none" 
	d="
M51.610722,137.990356 
	C52.635326,138.375458 53.264801,138.838531 53.891014,139.623917 
	C47.003963,142.411102 40.142254,144.941910 33.210445,147.263397 
	C32.268475,147.578888 30.975655,146.846786 29.904909,146.287598 
	C34.783859,141.172150 40.989727,139.864609 47.393768,139.006592 
	C48.686409,138.833405 49.942596,138.388153 51.610722,137.990356 
z"/>
<path fill="#172327" opacity="1.000000" stroke="none" 
	d="
M132.992462,28.336342 
	C138.767792,29.997049 144.807968,31.253248 149.862488,34.200077 
	C155.559067,37.521229 160.368088,42.364792 165.325897,46.831116 
	C165.271072,48.287746 165.303925,49.510799 165.682999,50.614979 
	C165.988785,51.505676 166.712494,52.252884 167.250778,53.063751 
	C162.681549,56.268551 160.601562,51.862404 157.354202,49.968880 
	C157.000092,49.994953 157.032486,50.008106 156.992279,49.672554 
	C154.936859,47.645615 152.921661,45.954231 150.773468,43.948608 
	C146.695465,41.446774 142.750473,39.259182 138.805481,37.071587 
	C133.342422,35.015671 131.595352,32.564827 132.992462,28.336342 
z"/>
<path fill="#192325" opacity="1.000000" stroke="none" 
	d="
M138.878052,37.413902 
	C142.750473,39.259182 146.695465,41.446774 150.424316,43.886612 
	C149.838287,44.328556 149.468399,44.518250 149.098511,44.707947 
	C151.743164,46.474663 154.387833,48.241386 157.032486,50.008106 
	C157.032486,50.008106 157.000092,49.994953 156.995010,49.978699 
	C157.995956,51.447216 158.985474,52.943527 160.012146,54.413891 
	C161.337677,56.312275 162.902206,58.199036 159.415512,59.857521 
	C155.913177,56.984734 152.764893,54.145073 149.030945,51.002678 
	C143.337173,47.715660 138.229065,44.731377 133.120941,41.747101 
	C132.040833,41.134453 130.960709,40.521801 129.578354,39.817863 
	C129.269501,36.514008 130.608307,35.656544 133.667160,36.862152 
	C135.293182,37.503033 137.180984,37.479721 138.878052,37.413902 
z"/>
<path fill="#D7C5B5" opacity="1.000000" stroke="none" 
	d="
M133.082672,42.069885 
	C138.229065,44.731377 143.337173,47.715660 148.708527,50.919456 
	C148.725052,51.548035 148.478348,51.957096 148.123215,52.580238 
	C143.163528,49.710678 138.312256,46.627033 133.230591,43.292328 
	C133.014923,42.825066 133.029663,42.608871 133.082672,42.069885 
z"/>
<path fill="#CAB4A3" opacity="1.000000" stroke="none" 
	d="
M167.467651,53.268677 
	C166.712494,52.252884 165.988785,51.505676 165.682999,50.614979 
	C165.303925,49.510799 165.271072,48.287746 165.439819,47.140671 
	C165.790970,47.165298 165.838699,47.146271 165.921326,47.383064 
	C166.312454,47.796394 166.620941,47.972939 166.929443,48.149483 
	C166.929443,48.149483 166.943634,48.057266 166.997498,48.317684 
	C167.347000,48.778313 167.642624,48.978523 167.938263,49.178734 
	C168.581253,49.918858 169.224228,50.658978 169.985474,51.671661 
	C170.072403,52.784809 170.041092,53.625389 169.998032,54.760719 
	C169.219025,54.528179 168.451767,54.000893 167.467651,53.268677 
z"/>
<path fill="#172327" opacity="1.000000" stroke="none" 
	d="
M174.223785,51.935715 
	C174.202240,51.446415 174.389648,50.868332 174.839020,50.120235 
	C174.878265,50.582458 174.655502,51.214695 174.223785,51.935715 
z"/>
<path fill="#172327" opacity="1.000000" stroke="none" 
	d="
M170.996887,52.377869 
	C171.629288,52.044071 172.427094,52.023182 173.623199,52.007423 
	C173.068405,52.238632 172.115356,52.464703 170.996887,52.377869 
z"/>
<path fill="#273137" opacity="1.000000" stroke="none" 
	d="
M50.768486,117.984947 
	C51.999851,122.137230 49.624783,123.883240 43.606670,123.585808 
	C44.343727,119.341309 44.343727,119.341309 50.768486,117.984947 
z"/>
<path fill="#11212A" opacity="1.000000" stroke="none" 
	d="
M60.610252,132.948212 
	C59.825653,133.580521 58.685963,134.252289 57.199829,134.933746 
	C57.987312,134.291504 59.121239,133.639587 60.610252,132.948212 
z"/>
<path fill="#CCBBAB" opacity="1.000000" stroke="none" 
	d="
M135.886795,93.128647 
	C135.763367,93.707863 135.650223,94.262154 135.262238,94.920456 
	C134.832458,94.939018 134.677551,94.853584 134.231796,94.471565 
	C133.304703,93.755913 132.668472,93.336845 132.032227,92.917786 
	C127.349129,89.651169 122.666031,86.384544 117.717163,82.932114 
	C117.646286,82.498787 117.841187,82.251259 118.594444,81.809906 
	C119.682816,81.867859 120.212822,82.119644 120.742828,82.371429 
	C120.742828,82.371422 120.858047,82.218666 120.906624,82.494751 
	C121.286728,82.882988 121.618263,82.995148 121.949791,83.107307 
	C121.949791,83.107307 121.972839,83.026314 122.031738,83.284988 
	C122.398804,83.675674 122.706970,83.807686 123.015144,83.939697 
	C123.015144,83.939697 123.155838,84.153336 123.469681,84.407043 
	C124.179420,84.793999 124.575310,84.927254 124.971199,85.060516 
	C124.971199,85.060516 124.991219,84.997444 125.124130,85.292679 
	C125.795113,85.905846 126.333199,86.223770 126.871284,86.541687 
	C126.991913,86.782219 127.182709,86.935295 127.746353,87.283539 
	C128.373062,87.712051 128.697083,87.857941 129.021088,88.003822 
	C129.021088,88.003822 129.156448,88.195694 129.457703,88.437546 
	C130.152206,88.840042 130.545471,89.000687 130.938736,89.161331 
	C130.938736,89.161331 130.938980,89.061562 130.987946,89.328644 
	C131.349075,89.758904 131.661255,89.922066 131.973434,90.085236 
	C132.292679,90.406349 132.611923,90.727463 133.320862,91.378860 
	C134.087357,91.895996 134.464142,92.082840 134.840927,92.269684 
	C134.840927,92.269676 134.841782,92.152107 134.900330,92.428116 
	C135.278412,92.853600 135.597946,93.003067 135.917465,93.152534 
	C135.917465,93.152534 135.897095,93.103737 135.886795,93.128647 
z"/>
<path fill="#D0BEAC" opacity="1.000000" stroke="none" 
	d="
M132.055710,93.226120 
	C132.668472,93.336845 133.304703,93.755913 133.968719,94.436874 
	C133.357376,94.310677 132.718292,93.922569 132.055710,93.226120 
z"/>
<path fill="#14242A" opacity="1.000000" stroke="none" 
	d="
M117.112946,74.135895 
	C117.724037,73.450058 118.331711,73.076553 118.894424,72.384247 
	C121.174065,73.413361 123.537109,74.700584 125.806038,76.136497 
	C126.840416,76.791115 127.688972,77.739357 128.779633,79.061203 
	C128.808868,79.868103 128.583466,80.044640 128.261261,80.097588 
	C123.162247,80.942055 120.826843,76.331230 117.112946,74.135895 
z"/>
<path fill="#C0B0A3" opacity="1.000000" stroke="none" 
	d="
M128.233765,80.253510 
	C128.583466,80.044640 128.808868,79.868103 128.989685,79.351593 
	C130.449631,80.263321 131.857391,81.391441 133.470169,82.751831 
	C133.372940,83.125664 133.070694,83.267227 132.619141,83.495766 
	C132.469833,83.582741 132.389999,83.598785 132.279984,83.358536 
	C131.805832,83.024063 131.441681,82.929855 131.077545,82.835640 
	C131.077545,82.835640 131.047516,82.932091 130.934357,82.630791 
	C129.911270,81.787834 129.001343,81.246178 128.091431,80.704521 
	C128.091431,80.704521 128.206284,80.409431 128.233765,80.253510 
z"/>
<path fill="#14242A" opacity="1.000000" stroke="none" 
	d="
M106.828003,74.110245 
	C105.512611,73.934570 104.194550,73.326401 102.631882,72.441422 
	C103.866631,72.668999 105.345978,73.173378 106.828003,74.110245 
z"/>
<path fill="#14242A" opacity="1.000000" stroke="none" 
	d="
M113.858795,77.817230 
	C112.960213,77.662170 112.056404,77.141594 111.035660,76.325211 
	C111.897011,76.503517 112.875282,76.977623 113.858795,77.817230 
z"/>
<path fill="#14242A" opacity="1.000000" stroke="none" 
	d="
M110.074074,70.324387 
	C110.976746,70.371925 111.933281,70.782967 113.068306,71.453339 
	C112.207176,71.371071 111.167557,71.029480 110.074074,70.324387 
z"/>
<path fill="#14242A" opacity="1.000000" stroke="none" 
	d="
M128.180389,81.041992 
	C129.001343,81.246178 129.911270,81.787834 130.979614,82.608368 
	C130.181808,82.384659 129.225586,81.882057 128.180389,81.041992 
z"/>
<path fill="#14242A" opacity="1.000000" stroke="none" 
	d="
M120.666855,82.018570 
	C120.212822,82.119644 119.682816,81.867859 118.905746,81.454376 
	C118.335640,81.075523 118.012589,80.858376 117.539429,80.388725 
	C118.456505,80.646049 119.523689,81.155876 120.666855,82.018570 
z"/>
<path fill="#14242A" opacity="1.000000" stroke="none" 
	d="
M113.306915,72.018875 
	C113.805916,71.900330 114.441757,72.123238 115.296227,72.606689 
	C114.824493,72.698257 114.134125,72.529297 113.306915,72.018875 
z"/>
<path fill="#14242A" opacity="1.000000" stroke="none" 
	d="
M108.202415,69.143707 
	C108.604744,69.079895 109.147064,69.290504 109.866753,69.737289 
	C109.476883,69.788353 108.909645,69.603241 108.202415,69.143707 
z"/>
<path fill="#14242A" opacity="1.000000" stroke="none" 
	d="
M126.790939,86.207092 
	C126.333199,86.223770 125.795113,85.905846 125.101555,85.316956 
	C125.534248,85.321487 126.122421,85.596985 126.790939,86.207092 
z"/>
<path fill="#14242A" opacity="1.000000" stroke="none" 
	d="
M121.826920,82.860275 
	C121.618263,82.995148 121.286728,82.882988 120.823257,82.541672 
	C121.028885,82.412758 121.366463,82.513000 121.826920,82.860275 
z"/>
<path fill="#14242A" opacity="1.000000" stroke="none" 
	d="
M116.123703,73.278427 
	C116.311401,73.179840 116.637039,73.294785 117.066284,73.656052 
	C116.867142,73.765564 116.564392,73.628754 116.123703,73.278427 
z"/>
<path fill="#14242A" opacity="1.000000" stroke="none" 
	d="
M116.845749,79.754349 
	C116.645378,79.876541 116.262238,79.756676 115.706276,79.382324 
	C115.909966,79.255997 116.286476,79.384148 116.845749,79.754349 
z"/>
<path fill="#14242A" opacity="1.000000" stroke="none" 
	d="
M114.864456,78.686539 
	C114.685974,78.789833 114.367683,78.688042 113.935616,78.353394 
	C114.173271,78.114571 114.474213,78.234879 114.864456,78.686539 
z"/>
<path fill="#14242A" opacity="1.000000" stroke="none" 
	d="
M128.883606,87.774628 
	C128.697083,87.857941 128.373062,87.712051 127.931938,87.314758 
	C128.125259,87.224045 128.435684,87.384743 128.883606,87.774628 
z"/>
<path fill="#14242A" opacity="1.000000" stroke="none" 
	d="
M122.886932,83.726822 
	C122.706970,83.807686 122.398804,83.675674 121.992950,83.301384 
	C122.240822,83.101135 122.528633,83.252747 122.886932,83.726822 
z"/>
<path fill="#14242A" opacity="1.000000" stroke="none" 
	d="
M131.188034,83.097610 
	C131.441681,82.929855 131.805832,83.024063 132.253204,83.389198 
	C131.990463,83.559937 131.644501,83.459755 131.188034,83.097610 
z"/>
<path fill="#14242A" opacity="1.000000" stroke="none" 
	d="
M124.789261,84.798004 
	C124.575310,84.927254 124.179420,84.793999 123.597519,84.403069 
	C123.810112,84.275429 124.208717,84.405464 124.789261,84.798004 
z"/>
<path fill="#14242A" opacity="1.000000" stroke="none" 
	d="
M135.816116,92.896271 
	C135.597946,93.003067 135.278412,92.853600 134.850449,92.459213 
	C135.066254,92.356209 135.390518,92.498108 135.816116,92.896271 
z"/>
<path fill="#14242A" opacity="1.000000" stroke="none" 
	d="
M134.716995,91.959305 
	C134.464142,92.082840 134.087357,91.895996 133.549957,91.430130 
	C133.790573,91.317039 134.191818,91.482979 134.716995,91.959305 
z"/>
<path fill="#14242A" opacity="1.000000" stroke="none" 
	d="
M131.861633,89.843460 
	C131.661255,89.922066 131.349075,89.758904 130.939819,89.341812 
	C131.145111,89.259148 131.447479,89.430412 131.861633,89.843460 
z"/>
<path fill="#14242A" opacity="1.000000" stroke="none" 
	d="
M130.773102,88.875420 
	C130.545471,89.000687 130.152206,88.840042 129.573120,88.416077 
	C129.794022,88.298332 130.200745,88.443916 130.773102,88.875420 
z"/>
<path fill="#172327" opacity="1.000000" stroke="none" 
	d="
M166.830093,47.893421 
	C166.620941,47.972939 166.312454,47.796394 165.900024,47.369377 
	C166.107651,47.291721 166.419189,47.464539 166.830093,47.893421 
z"/>
<path fill="#172327" opacity="1.000000" stroke="none" 
	d="
M167.843475,48.920425 
	C167.642624,48.978523 167.347000,48.778313 166.951172,48.323120 
	C167.150208,48.266129 167.449463,48.464123 167.843475,48.920425 
z"/>
<path fill="#D1BEAD" opacity="1.000000" stroke="none" 
	d="
M156.992279,49.672554 
	C154.387833,48.241386 151.743164,46.474663 149.098511,44.707947 
	C149.468399,44.518250 149.838287,44.328556 150.557312,44.200851 
	C152.921661,45.954231 154.936859,47.645615 156.992279,49.672554 
z"/>
</svg>